<?xml version="1.0" encoding="utf-8"?>
<!-- Generator: Adobe Illustrator 27.3.0, SVG Export Plug-In . SVG Version: 6.00 Build 0)  -->
<svg version="1.1" id="Layer_2_00000065047550035535641200000005487399245159227836_"
	 xmlns="http://www.w3.org/2000/svg" xmlns:xlink="http://www.w3.org/1999/xlink" x="0px" y="0px" viewBox="0 0 499.5 498.5"
	 style="enable-background:new 0 0 499.5 498.5; fill:#B5B5B5;" xml:space="preserve">
<style type="text/css">
	.st0{stroke:#B5B5B5;stroke-width:5;stroke-miterlimit:5;}
    
</style>
<g id="a">
</g>
<g id="b">
	<g id="c">
		<g>
			<path class="st0" d="M219.1,23.2c0.8,0.1,1.6,0,2.4-0.1l0,0.3c13.6-0.6,25.1,9.8,25.7,23.4c0.6,13.6-9.8,25.1-23.4,25.7
				c-4.5,0.9-7.4,5.2-6.5,9.7c0.7,3.6,3.6,6.2,7.3,6.6c22.6-1.1,40.1-20.3,39-42.9c-1.1-22.6-20.3-40.1-42.9-39
				c-4.5-0.5-8.6,2.8-9,7.3C211.3,18.7,214.6,22.8,219.1,23.2L219.1,23.2z"/>
			<path class="st0" d="M264.9,22.5c0.8,0.1,1.6,0,2.4-0.1l0,0.3c13.6-0.6,25.1,9.8,25.7,23.4s-9.8,25.1-23.4,25.7
				c-4.5,0.9-7.4,5.2-6.5,9.7c0.7,3.6,3.6,6.2,7.3,6.6c22.6-1.1,40.1-20.3,39-42.9c-1.1-22.6-20.3-40.1-42.9-39
				c-4.5-0.5-8.6,2.8-9,7.3S260.4,22.1,264.9,22.5L264.9,22.5z"/>
			<path class="st0" d="M432.2,41.9h-76.7C353,21.7,335.7,6,314.8,6.1c-4.5-0.7-8.7,2.4-9.4,6.9s2.4,8.7,6.9,9.4
				c0.8,0.1,1.7,0.1,2.5,0l0.2,0.3c13.6-0.5,25,10.1,25.5,23.7c0.5,13.6-10.1,25-23.7,25.5c-0.6,0-1.2,0-1.8,0
				c-4.5-0.7-8.7,2.4-9.4,6.9c-0.7,4.5,2.4,8.7,6.9,9.4c0.8,0.1,1.7,0.1,2.5,0c19.9,0,36.5-14.3,40.1-33.2h77.1
				c16.7,0,30.3,13.6,30.3,30.3v79.3H36.9V85.2c0-16.7,13.5-30.3,30.3-30.3h105.5c3.6,0,6.5-2.9,6.5-6.5c0-3.6-2.9-6.5-6.5-6.5
				h-21.4c3-13.2,16.1-21.4,29.2-18.5c13.2,3,21.5,16.1,18.5,29.3c-2,8.9-8.8,16-17.6,18.3c-3.7,0.8-6.4,4.1-6.5,7.9v0.3
				c0,4.5,3.7,8.1,8.2,8.1c0.7,0,1.5-0.1,2.2-0.3c17.7-4.6,30.3-20.4,30.8-38.7v-0.7c0,0-0.1-0.2-0.1-0.2v-0.5
				C215.3,24.2,196.5,6.4,174,7.1c-19.8,0.5-36.3,15.2-39.2,34.8H67.2C43.3,41.9,24,61.2,24,85.1v365.2c0,23.9,19.3,43.2,43.2,43.2
				h365c23.9,0,43.2-19.4,43.2-43.2V85.2C475.4,61.3,456.1,41.9,432.2,41.9L432.2,41.9z M462.6,450.2c0,16.7-13.5,30.3-30.3,30.3
				H67.2c-16.7,0-30.3-13.5-30.3-30.3V177.4h425.7L462.6,450.2L462.6,450.2z"/>
		</g>
	</g>
</g>
</svg>
