<?xml version="1.0" encoding="UTF-8"?>
<svg id="Layer_2" data-name="Layer 2" xmlns="http://www.w3.org/2000/svg" viewBox="0 0 499.47 498.45" style="fill:#B5B5B5; stroke:#B5B5B5; stroke-width:5; stroke-miterlimit:5;"  >
  <g id="Layer_1-2" data-name="Layer 1">
    <g>
      <path d="m495.92,261.44c-2.66-3.27-6.4-5.28-10.55-5.65-4.14-.38-8.19.86-11.42,3.48-3.27,2.66-5.28,6.4-5.65,10.53-10.81,112.6-104.53,197.51-218.01,197.51-120.84,0-219.15-98.31-219.15-219.15,0-110.27,82.43-203.74,191.76-217.43,4.19-.4,8.04-2.53,10.57-5.86,2.5-3.28,3.48-7.32,2.79-11.38-.43-4.15-2.55-7.96-5.85-10.47-3.3-2.51-7.35-3.49-11.44-2.78C94.14,15.6,0,122.17,0,248.16c0,66.65,26.09,129.45,73.46,176.82,47.38,47.37,110.17,73.46,176.82,73.46h4.85v-.06c127.43-2.39,232.03-98.54,244.26-225.54.37-4.14-.86-8.19-3.48-11.42Z"/>
      <path d="m266.75,250.21V107.79c0-9.12-7.42-16.53-16.53-16.53s-16.53,7.42-16.53,16.53v149.89c.04.66.12,1.32.26,1.97l.21.9.03.04c.05.18.11.37.18.55.13.51.29,1.01.48,1.49l.04.11c.22.5.46.99.74,1.46.23.46.48.87.76,1.3.13.19.3.42.48.67.13.17.27.35.37.51l.23.31c.11.13.21.26.29.4l.14.23,82.09,89.5c3.11,3.43,7.54,5.39,12.15,5.39h.09c4.14,0,8.09-1.56,11.09-4.38,6.69-6.17,7.14-16.66,1-23.38l-77.57-84.53Z"/>
      <path d="m429.87,74.26c-22.62-23.36-49.06-41.73-77.98-54.55-7.7-3.42-16.73.02-20.32,7.64l-.02.03c-3.74,7.94-.14,17.33,7.88,20.9,24.85,11.06,48.02,26.94,68.07,47.64,18.01,18.6,32.12,39.7,42.26,62.21,3.37,7.49,11.9,11.16,19.61,8.33h0c8.43-3.1,12.56-12.69,8.88-20.89-11.59-25.8-27.73-49.99-48.39-71.32Z"/>
    </g>
  </g>
</svg>

